<svg viewBox="0 0 602.82 294.08" xmlns="http://www.w3.org/2000/svg" id="Layer_2"><defs><style>.cls-1{fill:#fff;}.cls-2{fill:#ff0;}</style></defs><path d="M19.78,222.53h28.13v10.83h-11.26v10.26h10.53v10.3h-10.53v11.91h12.38v10.83h-29.25v-54.13Z" class="cls-1"></path><path d="M101.77,222.53v54.13h-14.78l-8.78-24.61v24.61h-14.1v-54.13h14.1l9.46,24.38v-24.38h14.1Z" class="cls-1"></path><path d="M118.77,222.53h28.12v10.83h-11.26v10.26h10.54v10.3h-10.54v11.91h12.38v10.83h-29.25v-54.13Z" class="cls-1"></path><path d="M163.11,222.53h11.94c7.96,0,13.35.26,16.16.77,2.83.52,5.12,1.82,6.89,3.93,1.78,2.1,2.67,5.47,2.67,10.08,0,4.21-.63,7.04-1.88,8.49-1.26,1.45-3.73,2.32-7.41,2.61,3.34.69,5.58,1.62,6.73,2.77,1.15,1.16,1.87,2.22,2.14,3.19.28.97.42,3.64.42,8.01v14.27h-15.66v-17.99c0-2.89-.28-4.69-.83-5.38-.54-.69-1.98-1.04-4.3-1.04v24.41h-16.87v-54.13ZM179.97,231.8v12.03c1.89,0,3.23-.21,3.98-.65.76-.44,1.15-1.84,1.15-4.23v-2.97c0-1.72-.37-2.84-1.1-3.37-.74-.54-2.08-.81-4.03-.81Z" class="cls-1"></path><path d="M256.23,242.46h-16.86v-4.91c0-3.1-.17-5.04-.48-5.82-.32-.78-1.09-1.17-2.29-1.17-1.04,0-1.75.33-2.13,1-.37.67-.56,2.39-.56,5.15v25.98c0,2.43.19,4.03.56,4.8.38.77,1.12,1.15,2.25,1.15,1.23,0,2.07-.43,2.5-1.31.45-.86.66-2.56.66-5.08v-6.42h-3.41v-8.22h19.75v29.05h-10.59l-1.56-3.88c-1.15,1.68-2.6,2.93-4.35,3.77-1.75.83-3.82,1.25-6.2,1.25-2.83,0-5.49-.58-7.96-1.72-2.47-1.14-4.35-2.57-5.64-4.26-1.27-1.7-2.08-3.47-2.4-5.34-.33-1.86-.49-4.65-.49-8.38v-16.08c0-5.17.34-8.93,1.01-11.27.67-2.34,2.59-4.48,5.75-6.43,3.17-1.95,7.26-2.93,12.28-2.93s9.04.85,12.3,2.55c3.26,1.69,5.38,3.71,6.37,6.03.98,2.33,1.48,5.71,1.48,10.15v2.33Z" class="cls-1"></path><path d="M308.93,222.53l-12.3,34.54v19.59h-15.63v-19.59l-11.86-34.54h15.49c2.42,10.56,3.79,17.68,4.1,21.33.93-5.77,2.5-12.89,4.7-21.33h15.49Z" class="cls-1"></path><path d="M344.71,222.53h12.63c8.14,0,13.65.31,16.53.94,2.87.62,5.05,1.65,6.55,3.07,1.49,1.43,2.43,3.02,2.8,4.77.38,1.75.56,5.18.56,10.31v18.96c0,4.86-.27,8.11-.82,9.74-.55,1.64-1.5,2.93-2.86,3.84-1.37.92-3.05,1.58-5.05,1.94-2,.37-5.02.55-9.05.55h-21.28v-54.13ZM361.58,231.8v35.61c2.43,0,3.93-.4,4.49-1.21.56-.81.84-3.03.84-6.64v-21.04c0-2.45-.09-4.02-.28-4.71-.19-.69-.62-1.19-1.29-1.52-.66-.33-1.93-.49-3.77-.49Z" class="cls-1"></path><path d="M400.31,222.53h11.94c7.96,0,13.35.26,16.17.77,2.82.52,5.12,1.82,6.88,3.93,1.79,2.1,2.67,5.47,2.67,10.08,0,4.21-.63,7.04-1.88,8.49-1.25,1.45-3.72,2.32-7.41,2.61,3.33.69,5.58,1.62,6.73,2.77,1.15,1.16,1.86,2.22,2.14,3.19.28.97.42,3.64.42,8.01v14.27h-15.66v-17.99c0-2.89-.29-4.69-.83-5.38-.55-.69-1.98-1.04-4.3-1.04v24.41h-16.87v-54.13ZM417.17,231.8v12.03c1.89,0,3.23-.21,3.98-.65.76-.44,1.15-1.84,1.15-4.23v-2.97c0-1.72-.38-2.84-1.1-3.37-.74-.54-2.08-.81-4.03-.81Z" class="cls-1"></path><path d="M471.59,222.53v54.13h-16.86v-54.13h16.86Z" class="cls-1"></path><path d="M526.26,222.53v54.13h-14.78l-8.77-24.61v24.61h-14.11v-54.13h14.11l9.45,24.38v-24.38h14.1Z" class="cls-1"></path><path d="M583.47,222.53l-9.68,24.44,10.6,29.69h-17.42l-6.83-23.2v23.2h-16.86v-54.13h16.86v21.03l7.51-21.03h15.83Z" class="cls-1"></path><path d="M119.25,78.72h-42.59v-13.07c0-6.1-.54-9.98-1.63-11.65-1.09-1.67-2.91-2.5-5.45-2.5-2.76,0-4.85,1.12-6.26,3.37-1.42,2.25-2.13,5.67-2.13,10.25,0,5.89.8,10.32,2.39,13.29,1.52,2.99,5.84,6.57,12.95,10.79,20.41,12.11,33.27,22.05,38.56,29.82,5.3,7.77,7.96,20.3,7.96,37.58,0,12.56-1.47,21.82-4.41,27.77-2.94,5.95-8.62,10.95-17.05,14.98-8.42,4.02-18.22,6.04-29.4,6.04-12.27,0-22.74-2.32-31.41-6.97-8.68-4.64-14.36-10.56-17.05-17.75-2.69-7.19-4.03-17.38-4.03-30.6v-11.54h42.59v21.45c0,6.61.59,10.86,1.79,12.74,1.2,1.89,3.33,2.83,6.38,2.83s5.32-1.19,6.81-3.59c1.48-2.39,2.23-5.96,2.23-10.67,0-10.38-1.42-17.17-4.25-20.36-2.9-3.2-10.06-8.53-21.45-16.01-11.4-7.55-18.96-13.03-22.66-16.45-3.7-3.41-6.77-8.12-9.2-14.15-2.43-6.03-3.64-13.72-3.64-23.09,0-13.5,1.72-23.38,5.17-29.61,3.45-6.26,9.02-11.13,16.72-14.65,7.7-3.53,16.98-5.28,27.88-5.28,11.91,0,22.05,1.92,30.44,5.77,8.39,3.85,13.95,8.7,16.66,14.55,2.72,5.84,4.09,15.76,4.09,29.77v6.98Z" class="cls-2"></path><path d="M240.27,102.13h-45.84v-30.65c0-8.91-.5-14.46-1.47-16.67-.99-2.21-3.15-3.31-6.49-3.31-3.77,0-6.17,1.34-7.19,4.03-1.02,2.68-1.53,8.5-1.53,17.42v81.9c0,8.57.51,14.16,1.53,16.77,1.01,2.62,3.3,3.92,6.86,3.92s5.65-1.31,6.7-3.93c1.04-2.62,1.58-8.76,1.58-18.46v-22.16h45.84v6.87c0,18.25-1.29,31.2-3.86,38.83-2.58,7.63-8.28,14.32-17.1,20.07-8.82,5.74-19.69,8.61-32.62,8.61s-24.5-2.43-33.21-7.3c-8.71-4.86-14.49-11.6-17.31-20.2-2.83-8.61-4.25-21.55-4.25-38.83v-51.52c0-12.7.43-22.24,1.3-28.58.87-6.36,3.47-12.47,7.79-18.35,4.32-5.88,10.31-10.51,17.97-13.89,7.65-3.38,16.46-5.06,26.41-5.06,13.5,0,24.64,2.61,33.43,7.82,8.78,5.23,14.55,11.73,17.32,19.52,2.75,7.8,4.13,19.93,4.13,36.39v16.75Z" class="cls-2"></path><path d="M391.25,25.35h32.45c21.64,0,36.29.83,43.95,2.5,7.66,1.67,13.9,5.94,18.73,12.8,4.83,6.86,7.25,17.8,7.25,32.83,0,13.73-1.71,22.95-5.12,27.67-3.42,4.72-10.12,7.56-20.15,8.5,9.07,2.25,15.17,5.27,18.3,9.04,3.12,3.77,5.06,7.24,5.83,10.4.76,3.16,1.14,11.85,1.14,26.07v46.51h-42.59v-58.6c0-9.44-.73-15.28-2.22-17.53-1.49-2.25-5.39-3.38-11.72-3.38v79.5h-45.84V25.35ZM437.09,55.52v39.2c5.16,0,8.77-.7,10.84-2.13,2.07-1.41,3.1-6,3.1-13.78v-9.69c0-5.59-1-9.26-2.99-11-1.99-1.75-5.64-2.61-10.95-2.61Z" class="cls-2"></path><polygon points="505.04 25.35 581.48 25.35 581.48 60.64 550.88 60.64 550.88 94.06 579.53 94.06 579.53 127.61 550.88 127.61 550.88 166.39 584.53 166.39 584.53 201.67 505.04 201.67 505.04 25.35" class="cls-2"></polygon><path d="M371.59,56.96c-.92-7.64-3.77-14.71-8.58-21.21-4.82-6.49-11.17-11.36-19.09-14.61-7.9-3.24-16.83-4.87-26.75-4.87-10.48,0-19.64,1.71-27.5,5.16-7.88,3.43-14.12,8.36-18.74,14.78-4.63,6.42-7.38,13.51-8.25,21.26-.88,7.75-1.32,20.95-1.32,39.6v31.73c0,19.1.46,32.47,1.37,40.12.92,7.63,3.79,14.71,8.6,21.19,4.82,6.5,11.17,11.37,19.08,14.62,7.91,3.24,16.83,4.87,26.77,4.87,10.46,0,19.63-1.73,27.5-5.15,7.87-3.45,14.12-8.37,18.73-14.79,4.62-6.42,7.37-13.51,8.25-21.27.88-7.75,1.31-20.94,1.31-39.59v-31.73c0-19.09-.45-32.47-1.38-40.11ZM324.58,75.83c.1,2.16.16,4.63.16,7.47v69.79c0,10.93-.45,17.83-1.37,20.74-.92,2.91-3.02,4.36-6.3,4.36s-5.25-1.26-6.12-3.78c-.88-2.52-1.33-9.17-1.33-19.94v-71.17c0-2.62.06-4.93.16-6.97-11.2,2.67-18.31,9.61-18.31,9.61l25.52-40.1,28.63,40.1c-7.44-6.01-14.56-8.99-21.04-10.11Z" class="cls-2"></path></svg>